Coordinates
version=1
nRows=29
nColumns=24
inDegrees=yes

Units are S.I. units (second, meters, Newtons, ...)
If the header above contains a line with 'inDegrees', this indicates whether rotational values are in degrees (yes) or radians (no).

endheader
time	pelvis_tilt	pelvis_list	pelvis_rotation	pelvis_tx	pelvis_ty	pelvis_tz	hip_flexion_r	hip_adduction_r	hip_rotation_r	knee_angle_r	ankle_angle_r	subtalar_angle_r	mtp_angle_r	hip_flexion_l	hip_adduction_l	hip_rotation_l	knee_angle_l	ankle_angle_l	subtalar_angle_l	mtp_angle_l	lumbar_extension	lumbar_bending	lumbar_rotation
0.575000	10.439243	2.752115	-180.274370	0.285041	0.746529	-1.215045	45.212653	-19.256090	-19.564206	-60.505505	19.532240	5.266567	0.000000	47.067358	-26.899407	-16.104022	-60.370938	18.844726	10.657758	0.000000	-9.309549	1.206706	1.592525
0.580000	10.491218	2.696548	-180.251794	0.286227	0.742452	-1.215119	45.991265	-19.502969	-19.274932	-61.664024	20.028129	5.207934	0.000000	47.838879	-27.055395	-15.841722	-61.466694	19.378879	10.714473	0.000000	-9.375156	1.002277	2.052045
0.585000	10.666345	2.670309	-180.263114	0.287206	0.738360	-1.215214	46.845441	-19.676962	-18.973784	-62.732551	20.452522	5.171753	0.000000	48.705040	-27.242299	-15.586076	-62.514769	19.852662	10.915026	0.000000	-9.513552	1.162120	1.557220
0.590000	10.715718	2.634907	-180.223945	0.288322	0.734330	-1.215492	47.572805	-19.865278	-18.688294	-63.818575	20.929652	5.110951	0.000000	49.461332	-27.393309	-15.286161	-63.532628	20.272630	11.058507	0.000000	-9.693163	1.079149	1.577850
0.595000	10.823136	2.593789	-180.236427	0.289386	0.730269	-1.215614	48.371765	-20.038329	-18.371226	-64.886027	21.374593	5.063101	0.000000	50.251239	-27.571271	-15.050869	-64.551897	20.702517	11.220267	0.000000	-9.806501	1.039233	1.617379
0.600000	10.927764	2.553722	-180.264739	0.290427	0.726224	-1.215713	49.172542	-20.206811	-18.063436	-65.956001	21.801014	4.999686	0.000000	51.028872	-27.757624	-14.831329	-65.566461	21.126788	11.357064	0.000000	-9.908569	1.048385	1.579305
0.605000	11.014906	2.523094	-180.301180	0.291446	0.722228	-1.215758	49.940167	-20.379455	-17.787679	-67.000224	22.213877	4.973871	0.000000	51.771551	-27.925838	-14.582513	-66.546347	21.570714	11.442680	0.000000	-10.028836	1.043151	1.582973
0.610000	11.118149	2.517384	-180.342766	0.292421	0.718196	-1.215843	50.702867	-20.515704	-17.524988	-68.012063	22.620742	4.959401	0.000000	52.539206	-28.121809	-14.320451	-67.530770	22.004857	11.576970	0.000000	-10.154155	0.989319	1.794655
0.615000	11.194350	2.475919	-180.372194	0.293421	0.714230	-1.215902	51.434912	-20.681035	-17.232794	-68.996004	22.999955	4.970283	0.000000	53.256379	-28.278524	-14.088112	-68.489142	22.429565	11.724010	0.000000	-10.294483	1.017177	1.711954
0.620000	11.318545	2.491984	-180.419104	0.294330	0.710275	-1.215963	52.178368	-20.789449	-16.987280	-69.939097	23.382855	5.033232	0.000000	54.025931	-28.487257	-13.826224	-69.424296	22.848556	11.855992	0.000000	-10.374445	1.002695	1.879486
0.625000	11.350290	2.466890	-180.445416	0.295239	0.706398	-1.216041	52.846370	-20.952679	-16.746225	-70.903943	23.763237	5.059344	0.000000	54.687195	-28.659030	-13.579257	-70.345498	23.241119	11.988173	0.000000	-10.547205	1.031176	1.823276
0.630000	11.400364	2.488697	-180.491816	0.296080	0.702523	-1.216029	53.509450	-21.072196	-16.529806	-71.847333	24.149460	5.101021	0.000000	55.371103	-28.861062	-13.300468	-71.262449	23.670241	12.084571	0.000000	-10.697929	1.004261	2.048642
0.635000	11.472578	2.542944	-180.535256	0.296932	0.698741	-1.216095	54.157762	-21.155255	-16.354119	-72.744203	24.479240	5.124743	0.000000	56.083834	-29.074627	-12.980848	-72.142292	24.056405	12.188957	0.000000	-10.812095	1.078647	2.124103
0.640000	11.478375	2.556410	-180.536776	0.297767	0.694986	-1.216233	54.734444	-21.290526	-16.168711	-73.644376	24.845185	5.169439	0.000000	56.715279	-29.240139	-12.686158	-73.005240	24.419175	12.281837	0.000000	-10.999568	1.141827	2.022958
0.645000	11.532919	2.610112	-180.571963	0.298506	0.691284	-1.216261	55.319489	-21.384627	-16.014962	-74.479483	25.188725	5.258728	0.000000	57.398399	-29.452319	-12.386281	-73.895286	24.743383	12.382766	0.000000	-11.115147	1.212607	2.094304
0.650000	11.539286	2.662370	-180.587411	0.299133	0.687701	-1.216214	55.826278	-21.498824	-15.919953	-75.285508	25.580344	5.235530	0.000000	58.003120	-29.629227	-12.073787	-74.699132	25.144419	12.497159	0.000000	-11.281871	1.251396	2.221058
0.655000	11.495769	2.698698	-180.553799	0.299798	0.684162	-1.216253	56.314658	-21.664494	-15.785506	-76.167480	25.883423	5.316189	0.000000	58.576184	-29.759908	-11.732746	-75.508772	25.475677	12.569824	0.000000	-11.478696	1.297223	2.172555
0.660000	11.481024	2.773348	-180.559660	0.300359	0.680695	-1.216292	56.785334	-21.771189	-15.706270	-76.980614	26.223175	5.374095	0.000000	59.171390	-29.940513	-11.393019	-76.355085	25.773286	12.579795	0.000000	-11.648111	1.367337	2.272934
0.665000	11.514561	2.870636	-180.574165	0.300896	0.677261	-1.216268	57.274412	-21.855651	-15.640732	-77.745390	26.514127	5.447253	0.000000	59.795531	-30.117256	-11.031125	-77.075778	26.181781	12.672966	0.000000	-11.752050	1.482104	2.323266
0.670000	11.416713	2.862875	-180.503801	0.301406	0.673982	-1.216326	57.646862	-22.052396	-15.511430	-78.528093	26.864502	5.431848	0.000000	60.256973	-30.173834	-10.739706	-77.884347	26.421119	12.675596	0.000000	-11.995600	1.464939	2.273596
0.675000	11.398746	2.933326	-180.460445	0.301893	0.670715	-1.216444	58.049221	-22.184489	-15.458405	-79.260551	27.167394	5.606627	0.000000	60.836413	-30.310127	-10.373248	-78.655072	26.645353	12.796682	0.000000	-12.139979	1.533960	2.263974
0.680000	11.357128	2.997090	-180.413641	0.302314	0.667529	-1.216483	58.429463	-22.328016	-15.406545	-79.997968	27.485303	5.665774	0.000000	61.350952	-30.410918	-10.041401	-79.344068	26.967979	12.817738	0.000000	-12.306935	1.594414	2.234885
0.685000	11.306543	3.066478	-180.378261	0.302693	0.664433	-1.216465	58.790728	-22.470572	-15.368382	-80.722714	27.795577	5.727757	0.000000	61.852103	-30.519930	-9.691215	-80.045049	27.251394	12.840834	0.000000	-12.466047	1.666816	2.264129
0.690000	11.260807	3.097162	-180.363744	0.303038	0.661360	-1.216500	59.174493	-22.603699	-15.277273	-81.435471	28.089978	5.734186	0.000000	62.328613	-30.621654	-9.387748	-80.759192	27.510236	12.859581	0.000000	-12.624973	1.693917	2.241393
0.695000	11.183687	3.133218	-180.330108	0.303341	0.658345	-1.216574	59.501819	-22.747362	-15.185882	-82.140149	28.369932	5.857478	0.000000	62.762379	-30.720736	-9.086273	-81.449840	27.800576	12.974302	0.000000	-12.808632	1.718058	2.203832
0.700000	11.108259	3.149611	-180.277926	0.303643	0.655390	-1.216638	59.797126	-22.893928	-15.112569	-82.803814	28.732966	5.839673	0.000000	63.180313	-30.776957	-8.797340	-82.103973	28.065536	12.992264	0.000000	-12.987369	1.723765	2.137342
0.705000	11.002943	3.176692	-180.245164	0.304037	0.652445	-1.216723	60.094936	-23.006271	-14.973832	-83.480093	29.059290	5.915751	0.000000	63.583486	-30.856655	-8.498290	-82.770501	28.338151	13.016722	0.000000	-13.128479	1.593227	2.524283
0.710000	10.996503	3.194652	-180.193320	0.304243	0.649671	-1.216830	60.450386	-23.168622	-14.929422	-84.109959	29.306753	5.958329	0.000000	64.032559	-30.897374	-8.208351	-83.349012	28.597293	13.091100	0.000000	-13.295354	1.759144	2.028680
0.715000	10.909968	3.219030	-180.177729	0.304425	0.646847	-1.216933	60.744585	-23.288941	-14.809316	-84.772118	29.630617	6.110254	0.000000	64.416742	-30.986514	-7.927487	-83.998601	28.861741	13.153771	0.000000	-13.467692	1.768882	2.012036
